<mxfile host="Electron" modified="2023-12-15T14:54:07.450Z" agent="Mozilla/5.0 (Windows NT 10.0; Win64; x64) AppleWebKit/537.36 (KHTML, like Gecko) draw.io/21.1.2 Chrome/106.0.5249.199 Electron/21.4.3 Safari/537.36" etag="TmkNP5_0vCJg4HWjEPhr" version="21.1.2" type="device">
  <diagram name="Page-1" id="GlHKhCPphz7cHde7Pp9r">
    <mxGraphModel dx="294" dy="1204" grid="1" gridSize="10" guides="1" tooltips="1" connect="1" arrows="1" fold="1" page="1" pageScale="1" pageWidth="850" pageHeight="1100" math="0" shadow="0">
      <root>
        <mxCell id="0" />
        <mxCell id="1" parent="0" />
        <mxCell id="POm9558Z-L6PDHLUth3e-13" value="MCU A" style="rounded=1;whiteSpace=wrap;html=1;" vertex="1" parent="1">
          <mxGeometry x="1550" y="490" width="120" height="90" as="geometry" />
        </mxCell>
        <mxCell id="POm9558Z-L6PDHLUth3e-14" value="MCU B" style="rounded=1;whiteSpace=wrap;html=1;" vertex="1" parent="1">
          <mxGeometry x="2080" y="490" width="120" height="90" as="geometry" />
        </mxCell>
        <mxCell id="POm9558Z-L6PDHLUth3e-15" value="Host" style="rounded=1;whiteSpace=wrap;html=1;" vertex="1" parent="1">
          <mxGeometry x="1040" y="500" width="120" height="80" as="geometry" />
        </mxCell>
        <mxCell id="POm9558Z-L6PDHLUth3e-20" value="Header&lt;br&gt;Slave Address&lt;br&gt;Function Code&lt;br&gt;Starting Address Hi&lt;br&gt;Starting Address Lo&lt;br&gt;No of Register Hi&lt;br&gt;No of Register Lo&lt;br&gt;Crc" style="text;html=1;strokeColor=none;fillColor=none;align=center;verticalAlign=middle;whiteSpace=wrap;rounded=0;" vertex="1" parent="1">
          <mxGeometry x="1090" y="400" width="250" height="120" as="geometry" />
        </mxCell>
        <mxCell id="POm9558Z-L6PDHLUth3e-22" value="Header&lt;br&gt;Slave Address&lt;br&gt;Function Code&lt;br&gt;Byte Count&lt;br&gt;1st Data Hi&lt;br&gt;1st Data Lo&lt;br&gt;.&lt;br&gt;Nth Data Hi&lt;br&gt;Nth Data Lo&lt;br&gt;Crc" style="text;html=1;strokeColor=none;fillColor=none;align=center;verticalAlign=middle;whiteSpace=wrap;rounded=0;" vertex="1" parent="1">
          <mxGeometry x="1360" y="560" width="260" height="150" as="geometry" />
        </mxCell>
        <mxCell id="POm9558Z-L6PDHLUth3e-24" value="Modbus on RS485" style="text;html=1;strokeColor=none;fillColor=none;align=center;verticalAlign=middle;whiteSpace=wrap;rounded=0;" vertex="1" parent="1">
          <mxGeometry x="1310" y="340" width="90" height="30" as="geometry" />
        </mxCell>
        <mxCell id="POm9558Z-L6PDHLUth3e-25" value="SPI" style="text;html=1;strokeColor=none;fillColor=none;align=center;verticalAlign=middle;whiteSpace=wrap;rounded=0;" vertex="1" parent="1">
          <mxGeometry x="1840" y="340" width="90" height="30" as="geometry" />
        </mxCell>
        <mxCell id="POm9558Z-L6PDHLUth3e-29" value="Tx" style="text;html=1;strokeColor=none;fillColor=none;align=center;verticalAlign=middle;whiteSpace=wrap;rounded=0;" vertex="1" parent="1">
          <mxGeometry x="1530" y="510" width="60" height="30" as="geometry" />
        </mxCell>
        <mxCell id="POm9558Z-L6PDHLUth3e-33" value="Tx" style="text;html=1;strokeColor=none;fillColor=none;align=center;verticalAlign=middle;whiteSpace=wrap;rounded=0;" vertex="1" parent="1">
          <mxGeometry x="1120" y="540" width="60" height="30" as="geometry" />
        </mxCell>
        <mxCell id="POm9558Z-L6PDHLUth3e-35" value="Rx" style="text;html=1;strokeColor=none;fillColor=none;align=center;verticalAlign=middle;whiteSpace=wrap;rounded=0;" vertex="1" parent="1">
          <mxGeometry x="1530" y="540" width="60" height="30" as="geometry" />
        </mxCell>
        <mxCell id="POm9558Z-L6PDHLUth3e-36" value="Rx" style="text;html=1;strokeColor=none;fillColor=none;align=center;verticalAlign=middle;whiteSpace=wrap;rounded=0;" vertex="1" parent="1">
          <mxGeometry x="1120" y="510" width="60" height="30" as="geometry" />
        </mxCell>
        <mxCell id="POm9558Z-L6PDHLUth3e-37" value="" style="endArrow=classic;html=1;rounded=0;" edge="1" parent="1" source="POm9558Z-L6PDHLUth3e-36" target="POm9558Z-L6PDHLUth3e-29">
          <mxGeometry width="50" height="50" relative="1" as="geometry">
            <mxPoint x="1730" y="680" as="sourcePoint" />
            <mxPoint x="1780" y="630" as="targetPoint" />
          </mxGeometry>
        </mxCell>
        <mxCell id="POm9558Z-L6PDHLUth3e-38" value="" style="endArrow=classic;html=1;rounded=0;entryX=1;entryY=0.5;entryDx=0;entryDy=0;exitX=0;exitY=0.5;exitDx=0;exitDy=0;" edge="1" parent="1" source="POm9558Z-L6PDHLUth3e-35" target="POm9558Z-L6PDHLUth3e-33">
          <mxGeometry width="50" height="50" relative="1" as="geometry">
            <mxPoint x="1730" y="680" as="sourcePoint" />
            <mxPoint x="1780" y="630" as="targetPoint" />
          </mxGeometry>
        </mxCell>
        <mxCell id="POm9558Z-L6PDHLUth3e-39" value="Mosi&lt;br&gt;Miso&lt;br&gt;CS&lt;br&gt;CLK" style="text;html=1;strokeColor=none;fillColor=none;align=center;verticalAlign=middle;whiteSpace=wrap;rounded=0;" vertex="1" parent="1">
          <mxGeometry x="1630" y="500" width="50" height="70" as="geometry" />
        </mxCell>
        <mxCell id="POm9558Z-L6PDHLUth3e-41" value="Miso&lt;br&gt;Mosi&lt;br&gt;CS&lt;br&gt;CLK" style="text;html=1;strokeColor=none;fillColor=none;align=center;verticalAlign=middle;whiteSpace=wrap;rounded=0;" vertex="1" parent="1">
          <mxGeometry x="2075" y="500" width="50" height="70" as="geometry" />
        </mxCell>
        <mxCell id="POm9558Z-L6PDHLUth3e-42" value="" style="endArrow=classic;html=1;rounded=0;entryX=0;entryY=0.25;entryDx=0;entryDy=0;exitX=1;exitY=0.25;exitDx=0;exitDy=0;" edge="1" parent="1" source="POm9558Z-L6PDHLUth3e-39" target="POm9558Z-L6PDHLUth3e-41">
          <mxGeometry width="50" height="50" relative="1" as="geometry">
            <mxPoint x="1630" y="610" as="sourcePoint" />
            <mxPoint x="1670" y="610" as="targetPoint" />
          </mxGeometry>
        </mxCell>
        <mxCell id="POm9558Z-L6PDHLUth3e-43" value="" style="endArrow=classic;html=1;rounded=0;exitX=-0.06;exitY=0.414;exitDx=0;exitDy=0;exitPerimeter=0;entryX=1.06;entryY=0.4;entryDx=0;entryDy=0;entryPerimeter=0;" edge="1" parent="1" source="POm9558Z-L6PDHLUth3e-41" target="POm9558Z-L6PDHLUth3e-39">
          <mxGeometry width="50" height="50" relative="1" as="geometry">
            <mxPoint x="1620" y="660" as="sourcePoint" />
            <mxPoint x="1670" y="610" as="targetPoint" />
          </mxGeometry>
        </mxCell>
        <mxCell id="POm9558Z-L6PDHLUth3e-44" value="" style="endArrow=classic;html=1;rounded=0;entryX=0;entryY=0.25;entryDx=0;entryDy=0;exitX=1;exitY=0.25;exitDx=0;exitDy=0;" edge="1" parent="1">
          <mxGeometry width="50" height="50" relative="1" as="geometry">
            <mxPoint x="1680" y="540" as="sourcePoint" />
            <mxPoint x="2075" y="540" as="targetPoint" />
          </mxGeometry>
        </mxCell>
        <mxCell id="POm9558Z-L6PDHLUth3e-46" value="" style="endArrow=classic;startArrow=classic;html=1;rounded=0;exitX=1;exitY=0.75;exitDx=0;exitDy=0;entryX=0;entryY=0.75;entryDx=0;entryDy=0;" edge="1" parent="1" source="POm9558Z-L6PDHLUth3e-39" target="POm9558Z-L6PDHLUth3e-41">
          <mxGeometry width="50" height="50" relative="1" as="geometry">
            <mxPoint x="1830" y="690" as="sourcePoint" />
            <mxPoint x="1880" y="640" as="targetPoint" />
          </mxGeometry>
        </mxCell>
        <mxCell id="POm9558Z-L6PDHLUth3e-73" value="MCU B received command, enter bootloader mode and update fimware" style="whiteSpace=wrap;html=1;" vertex="1" parent="1">
          <mxGeometry x="1860" y="1070" width="120" height="60" as="geometry" />
        </mxCell>
        <mxCell id="POm9558Z-L6PDHLUth3e-49" value="MCU A received host command" style="rhombus;whiteSpace=wrap;html=1;" vertex="1" parent="1">
          <mxGeometry x="1540" y="780" width="140" height="110" as="geometry" />
        </mxCell>
        <mxCell id="POm9558Z-L6PDHLUth3e-76" value="" style="edgeStyle=orthogonalEdgeStyle;rounded=0;orthogonalLoop=1;jettySize=auto;html=1;" edge="1" parent="1" source="POm9558Z-L6PDHLUth3e-52" target="POm9558Z-L6PDHLUth3e-66">
          <mxGeometry relative="1" as="geometry" />
        </mxCell>
        <mxCell id="POm9558Z-L6PDHLUth3e-52" value="Command == update firmware" style="rhombus;whiteSpace=wrap;html=1;" vertex="1" parent="1">
          <mxGeometry x="1540" y="920" width="140" height="110" as="geometry" />
        </mxCell>
        <mxCell id="POm9558Z-L6PDHLUth3e-53" value="" style="edgeStyle=orthogonalEdgeStyle;rounded=0;orthogonalLoop=1;jettySize=auto;html=1;" edge="1" parent="1" source="POm9558Z-L6PDHLUth3e-49" target="POm9558Z-L6PDHLUth3e-52">
          <mxGeometry relative="1" as="geometry" />
        </mxCell>
        <mxCell id="POm9558Z-L6PDHLUth3e-54" value="Mcu A enter bootloader mode and update firmware" style="whiteSpace=wrap;html=1;" vertex="1" parent="1">
          <mxGeometry x="1550" y="1260" width="120" height="60" as="geometry" />
        </mxCell>
        <mxCell id="POm9558Z-L6PDHLUth3e-58" value="" style="endArrow=classic;html=1;rounded=0;exitX=1;exitY=0.5;exitDx=0;exitDy=0;" edge="1" parent="1" source="POm9558Z-L6PDHLUth3e-49">
          <mxGeometry width="50" height="50" relative="1" as="geometry">
            <mxPoint x="1620" y="950" as="sourcePoint" />
            <mxPoint x="1610" y="750" as="targetPoint" />
            <Array as="points">
              <mxPoint x="1760" y="835" />
              <mxPoint x="1760" y="750" />
            </Array>
          </mxGeometry>
        </mxCell>
        <mxCell id="POm9558Z-L6PDHLUth3e-59" value="" style="endArrow=classic;html=1;rounded=0;" edge="1" parent="1" target="POm9558Z-L6PDHLUth3e-49">
          <mxGeometry width="50" height="50" relative="1" as="geometry">
            <mxPoint x="1610" y="750" as="sourcePoint" />
            <mxPoint x="1670" y="900" as="targetPoint" />
          </mxGeometry>
        </mxCell>
        <mxCell id="POm9558Z-L6PDHLUth3e-60" value="Perform other task" style="whiteSpace=wrap;html=1;" vertex="1" parent="1">
          <mxGeometry x="1740" y="945" width="120" height="60" as="geometry" />
        </mxCell>
        <mxCell id="POm9558Z-L6PDHLUth3e-61" value="" style="edgeStyle=orthogonalEdgeStyle;rounded=0;orthogonalLoop=1;jettySize=auto;html=1;" edge="1" parent="1" source="POm9558Z-L6PDHLUth3e-52" target="POm9558Z-L6PDHLUth3e-60">
          <mxGeometry relative="1" as="geometry" />
        </mxCell>
        <mxCell id="POm9558Z-L6PDHLUth3e-78" value="" style="edgeStyle=orthogonalEdgeStyle;rounded=0;orthogonalLoop=1;jettySize=auto;html=1;" edge="1" parent="1" source="POm9558Z-L6PDHLUth3e-66" target="POm9558Z-L6PDHLUth3e-77">
          <mxGeometry relative="1" as="geometry" />
        </mxCell>
        <mxCell id="POm9558Z-L6PDHLUth3e-82" value="" style="edgeStyle=orthogonalEdgeStyle;rounded=0;orthogonalLoop=1;jettySize=auto;html=1;entryX=0;entryY=0.5;entryDx=0;entryDy=0;" edge="1" parent="1" source="POm9558Z-L6PDHLUth3e-66" target="POm9558Z-L6PDHLUth3e-73">
          <mxGeometry relative="1" as="geometry">
            <mxPoint x="1750" y="1100" as="targetPoint" />
          </mxGeometry>
        </mxCell>
        <mxCell id="POm9558Z-L6PDHLUth3e-66" value="transmit data packet to MCU B" style="whiteSpace=wrap;html=1;" vertex="1" parent="1">
          <mxGeometry x="1550" y="1070" width="120" height="60" as="geometry" />
        </mxCell>
        <mxCell id="POm9558Z-L6PDHLUth3e-80" value="" style="edgeStyle=orthogonalEdgeStyle;rounded=0;orthogonalLoop=1;jettySize=auto;html=1;entryX=0.5;entryY=0;entryDx=0;entryDy=0;" edge="1" parent="1" source="POm9558Z-L6PDHLUth3e-77" target="POm9558Z-L6PDHLUth3e-54">
          <mxGeometry relative="1" as="geometry">
            <mxPoint x="1610" y="1310" as="targetPoint" />
          </mxGeometry>
        </mxCell>
        <mxCell id="POm9558Z-L6PDHLUth3e-77" value="write new fw to flash" style="whiteSpace=wrap;html=1;" vertex="1" parent="1">
          <mxGeometry x="1550" y="1170" width="120" height="60" as="geometry" />
        </mxCell>
      </root>
    </mxGraphModel>
  </diagram>
</mxfile>
